<?xml version="1.0" standalone="no"?>
<!DOCTYPE svg PUBLIC "-//W3C//DTD SVG 20010904//EN"
 "http://www.w3.org/TR/2001/REC-SVG-20010904/DTD/svg10.dtd">
<svg version="1.0" xmlns="http://www.w3.org/2000/svg"
 width="16.000000pt" height="16.000000pt" viewBox="0 0 16.000000 16.000000"
 preserveAspectRatio="xMidYMid meet">
<metadata>
Created by potrace 1.11, written by Peter Selinger 2001-2013
</metadata>
<g transform="translate(0.000000,16.000000) scale(0.006154,-0.006154)"
fill="#000000" stroke="none">
<path d="M1275 2523 l0 -78 -567 -3 -568 -2 0 -1165 0 -1165 599 0 599 0 37
-50 c20 -27 39 -50 41 -50 2 0 -5 18 -16 40 -11 21 -20 44 -20 50 0 7 173 10
540 10 l540 0 0 1165 0 1165 -518 0 -519 0 -19 35 c-18 35 -34 45 -34 24 0 -6
-19 14 -42 45 -23 31 -44 56 -47 56 -3 0 -6 -35 -6 -77z m-745 -318 l0 -155
-155 0 -155 0 0 155 0 155 155 0 155 0 0 -155z m340 0 l0 -155 -135 0 -135 0
0 155 0 155 135 0 135 0 0 -155z m362 133 c-64 -80 -199 -201 -269 -242 -10
-6 -13 23 -13 128 l0 136 150 0 150 0 -18 -22z m418 -133 l0 -155 -89 0 -90 0
10 32 c14 50 11 169 -6 224 -8 27 -15 50 -15 52 0 1 43 2 95 2 l95 0 0 -155z
m350 0 l0 -155 -105 0 c-76 0 -115 4 -135 15 l-30 16 0 139 0 140 135 0 135 0
0 -155z m380 0 l0 -155 -155 0 -155 0 0 155 0 155 155 0 155 0 0 -155z m-1850
-370 l0 -135 -155 0 -155 0 0 135 0 135 155 0 155 0 0 -135z m212 76 c-33 -32
-78 -82 -101 -111 l-41 -52 0 111 0 111 101 0 101 0 -60 -59z m908 -76 l0
-135 -40 0 c-33 0 -42 4 -50 24 -10 28 -68 96 -81 96 -6 0 -7 -15 -3 -35 4
-25 1 -43 -10 -60 -14 -22 -24 -25 -71 -25 l-55 0 0 53 c0 46 6 61 50 126 28
41 50 79 50 83 0 4 47 8 105 8 l105 0 0 -135z m149 84 c40 -61 78 -144 87
-187 l7 -32 -82 0 -81 0 0 135 c0 122 2 135 18 135 10 0 31 -21 51 -51z m201
14 c0 -21 -7 -46 -14 -56 -13 -17 -15 -15 -35 17 -12 19 -34 44 -49 55 l-27
20 63 1 62 0 0 -37z m380 -98 l0 -135 -120 0 c-66 0 -120 4 -120 9 0 5 -16 32
-35 60 -32 47 -35 56 -35 126 l0 75 155 0 155 0 0 -135z m-1895 -287 c-19 -40
-42 -104 -51 -143 -9 -38 -18 -76 -20 -82 -2 -9 -31 -13 -99 -13 l-95 0 0 155
0 155 150 0 149 0 -34 -72z m775 -23 c0 -86 -3 -101 -30 -155 l-30 -60 -120 0
c-66 0 -120 3 -120 6 0 16 97 152 160 223 63 72 75 81 106 81 l34 0 0 -95z
m104 73 c-10 -13 -20 -25 -21 -27 -2 -2 -3 8 -3 22 0 21 5 27 22 27 21 0 21 0
2 -22z m286 -133 l0 -155 -145 0 -146 0 12 23 c23 43 72 109 124 168 29 32 58
72 65 89 11 26 17 30 51 30 l39 0 0 -155z m245 108 c-11 -81 -33 -166 -54
-215 -20 -47 -21 -48 -66 -48 l-45 0 0 155 0 155 86 0 85 0 -6 -47z m485 -108
l0 -155 -65 0 -65 0 10 26 c14 37 12 42 -9 17 -18 -21 -18 -21 -31 64 -7 47
-19 108 -26 137 -8 28 -14 54 -14 59 0 4 45 7 100 7 l100 0 0 -155z m-1970
-292 c0 -38 8 -107 18 -155 l18 -88 -113 0 -113 0 0 155 0 155 95 0 95 0 0
-67z m760 59 c0 -5 -7 -31 -15 -58 -12 -43 -45 -212 -45 -235 0 -5 -36 -9 -80
-9 l-80 0 0 155 0 155 110 0 c61 0 110 -4 110 -8z m480 -50 l0 -58 -84 -82
c-56 -55 -94 -84 -115 -88 -17 -4 -34 -11 -37 -15 -3 -5 -21 -9 -40 -9 l-34 0
0 155 0 155 155 0 155 0 0 -58z m730 -97 l0 -155 -105 0 -104 0 28 68 c37 87
55 165 48 208 l-6 34 70 0 69 0 0 -155z m-1120 -105 c0 -35 -4 -50 -14 -50
-10 0 -11 10 -3 50 5 28 11 50 13 50 2 0 4 -22 4 -50z m-393 -32 c-2 -13 -4
-3 -4 22 0 25 2 35 4 23 2 -13 2 -33 0 -45z m-364 -153 c22 -46 27 -69 27
-135 l0 -80 -155 0 -155 0 0 135 0 135 128 0 128 0 27 -55z m611 -47 c4 -57 9
-118 13 -136 l5 -33 -88 3 -89 3 -3 133 -3 132 79 0 79 0 7 -102z m146 -33 c0
-109 -3 -135 -14 -135 -22 0 -26 24 -26 151 0 112 1 119 20 119 19 0 20 -7 20
-135z m1120 0 l0 -135 -155 0 -155 0 0 97 c0 88 2 100 26 135 l27 38 128 0
129 0 0 -135z m-995 -98 c7 -35 6 -37 -19 -37 -25 0 -26 2 -26 61 l0 62 19
-25 c11 -13 22 -41 26 -61z m615 13 l0 -50 -52 0 -52 0 49 50 c27 28 51 50 52
50 2 0 3 -22 3 -50z m-1321 -22 l24 -28 -51 0 c-50 0 -52 1 -52 27 l0 27 16
-22 c20 -30 34 -28 34 5 0 14 1 24 3 22 1 -2 13 -16 26 -31z m-149 -263 l0
-155 -155 0 -155 0 0 155 0 155 155 0 155 0 0 -155z m298 123 l42 -32 0 -123
0 -123 -135 0 -135 0 0 155 0 155 93 0 c90 0 95 -1 135 -32z m341 -10 c7 -24
30 -81 52 -127 21 -46 39 -97 39 -112 l0 -29 -155 0 -155 0 0 99 0 100 60 -30
c113 -56 120 -55 52 6 -69 63 -104 115 -77 115 8 0 15 5 15 10 0 6 33 10 78
10 l79 0 12 -42z m88 10 c-3 -7 -5 -2 -5 12 0 14 2 19 5 13 2 -7 2 -19 0 -25z
m159 7 c3 -14 22 -39 42 -56 33 -29 39 -31 96 -27 34 3 69 8 79 13 16 7 17 -2
17 -104 l0 -111 -155 0 -155 0 0 155 0 155 35 0 c29 0 36 -4 41 -25z m584
-130 l0 -155 -135 0 -135 0 0 134 0 134 33 21 c27 17 48 21 135 21 l102 0 0
-155z m380 0 l0 -155 -155 0 -155 0 0 155 0 155 155 0 155 0 0 -155z"/>
</g>
</svg>
