<svg xmlns="http://www.w3.org/2000/svg" xmlns:xlink="http://www.w3.org/1999/xlink" width="100" height="38" viewBox="0 0 100 38">
    <defs>
        <path id="a" d="M0 .037h29.79V38H0z"/>
        <path id="c" d="M0 38.963h99.907V1H0z"/>
    </defs>
    <g fill="none" fill-rule="evenodd" transform="translate(0 -1)">
        <g transform="translate(0 .963)">
            <mask id="b" fill="#fff">
                <use xlink:href="#a"/>
            </mask>
            <path fill="#009951" d="M15.48 16.882v-4.915c0-.052.049-6.046 5.429-6.303l3.457-.153c2.355-.325 3.728-.998 4.576-2.791v7.05s-.006.207-.085.528c-.545 2.169-2.638 3.063-4.875 3.178l-3.015.153c-3.31.176-4.433 1.517-5.487 3.253zm0 12.22c0-.05.049-6.047 5.429-6.303l3.457-.153c2.355-.325 3.728-.996 4.576-2.79v7.05s-.006.208-.085.526c-.545 2.17-2.638 3.063-4.875 3.18l-3.015.155c-3.31.174-4.433 1.515-5.487 3.25v-4.915zm-1.254-2.671c-1.052-1.737-2.178-3.078-5.486-3.253l-3.015-.153c-2.238-.117-4.331-1.01-4.875-3.18-.08-.32-.085-.526-.085-.526v-7.052c.846 1.795 2.22 2.468 4.574 2.793l3.458.152c5.379.258 5.429 6.253 5.429 6.304v4.915zm6.712-11.935l3.178-.168c5.562-.307 5.673-4.535 5.674-4.572V.083l-.465-.046c-.004.025-.868 4.325-4.851 4.526l-3.645.172c-3.078.15-4.63 2.04-5.4 3.862a10.419 10.419 0 0 0-.772 3.589v6.788a8.046 8.046 0 0 0-.3-.845c-.767-1.822-2.32-3.71-5.397-3.864l-3.646-.17c-2.392-.121-3.925-1.764-4.656-3.85-.14-.408-.195-.675-.195-.675L0 9.615v9.675s.004.274.103.686c.625 2.613 2.992 3.742 5.568 3.885l3.179.169c4.684.26 5.735 5.452 5.807 6.312V38h.47c0-.526.945-6.122 5.81-6.392l3.179-.168c5.562-.31 5.673-4.535 5.674-4.572v-9.675l-.465-.044c-.004.02-.868 4.323-4.851 4.525l-3.645.169c-3.078.155-4.63 2.045-5.4 3.865a9.261 9.261 0 0 0-.296.808l.005-5.658c-.065-.416 1.27-6.362 5.8-6.362z" mask="url(#b)"/>
        </g>
        <path fill="#009951" d="M43.628 18.785v-.125c0-.676-.24-1.032-.704-1.032-.23 0-.436.106-.534.294-.116.195-.142.373-.142.854v1.977c0 .454.026.685.098.88.09.233.32.384.596.384.472 0 .712-.383.712-1.157 0-.027 0-.09-.008-.152h.926v.205c0 1.282-.56 1.968-1.63 1.968-.596 0-1.068-.232-1.326-.66-.223-.364-.285-.711-.285-1.593v-1.665c0-.935.071-1.273.347-1.647.258-.356.712-.552 1.255-.552 1.015 0 1.612.676 1.612 1.843v.178h-.917zM46.317 21.314c0 .56.16.81.525.81.374 0 .535-.25.535-.81v-1.47c0-.56-.161-.81-.526-.81-.374 0-.534.25-.534.81v1.47zm1.888-.053c0 .694-.08.995-.347 1.255-.241.24-.588.365-1.007.365-.427 0-.774-.125-1.014-.366-.26-.259-.348-.56-.348-1.255v-1.363c0-.694.089-.996.348-1.263.24-.233.587-.357 1.014-.357.419 0 .766.124 1.007.357.267.267.347.57.347 1.264v1.363zM50.101 18.936c.383-.445.712-.632 1.104-.632.49 0 .721.329.721 1.033v3.454h-.828V19.55c0-.391-.08-.516-.32-.516-.223 0-.472.16-.677.445v3.312h-.828v-4.425h.828v.57zM53.938 22.791l-1.087-4.425h.882l.633 2.814.56-2.814h.872l-.988 4.425zM58.514 19.746c0-.525-.16-.739-.543-.739s-.543.223-.543.74v.24h1.086v-.24zm-1.086.971v.391c0 .428.026.623.107.775.08.152.25.24.454.24.365 0 .534-.23.534-.747v-.116h.828c-.009.605-.036.801-.169 1.024-.214.382-.64.596-1.193.596-.508 0-.89-.16-1.113-.463-.196-.276-.277-.605-.277-1.202v-1.317c0-.704.081-.998.357-1.256.24-.24.588-.365 1.006-.365.445 0 .81.142 1.042.41.25.285.338.605.338 1.3v.73h-1.914zM61.168 18.936c.382-.445.71-.632 1.104-.632.489 0 .72.329.72 1.033v3.454h-.827V19.55c0-.391-.08-.516-.321-.516-.222 0-.472.16-.676.445v3.312h-.83v-4.425h.83v.57zM66.03 19.105h-.758v2.36c0 .445.151.631.516.631.098 0 .178-.017.321-.052v.747a2.733 2.733 0 0 1-.56.063c-.419 0-.723-.107-.9-.33-.16-.196-.205-.41-.205-.97v-2.448h-.64v-.74h.64v-1.21h.828v1.21h.757v.74z"/>
        <mask id="d" fill="#fff">
            <use xlink:href="#c"/>
        </mask>
        <path fill="#009951" d="M66.919 22.792h.828v-4.425h-.828v4.425zm0-5.076h.828v-.863h-.828v.863zM69.582 21.314c0 .56.16.81.525.81.374 0 .534-.25.534-.81v-1.47c0-.56-.16-.81-.526-.81-.373 0-.533.25-.533.81v1.47zm1.887-.053c0 .694-.08.995-.346 1.255-.242.24-.589.365-1.008.365-.427 0-.774-.125-1.014-.366-.258-.259-.349-.56-.349-1.255v-1.363c0-.694.09-.996.349-1.263.24-.233.587-.357 1.014-.357.42 0 .767.124 1.008.357.265.267.346.57.346 1.264v1.363zM73.339 18.936c.383-.445.712-.632 1.104-.632.49 0 .72.329.72 1.033v3.454h-.827V19.55c0-.391-.08-.516-.321-.516-.222 0-.471.16-.676.445v3.312h-.828v-4.425h.828v.57zM78.992 21.314c0 .56.161.81.526.81.373 0 .534-.25.534-.81v-1.47c0-.56-.16-.81-.525-.81-.374 0-.535.25-.535.81v1.47zm1.888-.053c0 .694-.08.995-.347 1.255-.24.24-.588.365-1.006.365-.428 0-.775-.125-1.015-.366-.259-.259-.348-.56-.348-1.255v-1.363c0-.694.09-.996.348-1.263.24-.233.587-.357 1.015-.357.418 0 .765.124 1.006.357.267.267.347.57.347 1.264v1.363zM82.607 18.936c.383-.445.712-.632 1.104-.632.49 0 .721.329.721 1.033v3.454h-.828V19.55c0-.391-.08-.516-.32-.516-.223 0-.472.16-.677.445v3.312h-.828v-4.425h.828v.57zM42.773 31.088c.58 0 .917-.303.917-.837 0-.596-.41-.988-1.05-.988h-.33v1.825h.463zm-.133-2.671c.56 0 .925-.33.925-.837a.745.745 0 0 0-.222-.552c-.152-.134-.339-.187-.686-.187h-.347v1.576h.33zm-1.247-2.422h1.371c1.113 0 1.737.543 1.737 1.505 0 .703-.312 1.122-.98 1.326.801.232 1.122.64 1.122 1.425 0 1.05-.659 1.683-1.763 1.683h-1.487v-5.94zM45.65 31.934h.828v-4.425h-.828v4.425zm0-5.075h.828v-.864h-.828v.864zM48.32 30.456c0 .56.16.81.525.81.374 0 .535-.25.535-.81v-1.47c0-.56-.16-.81-.526-.81-.374 0-.534.25-.534.81v1.47zm1.888-.053c0 .694-.08.997-.347 1.255-.24.24-.588.365-1.007.365-.427 0-.774-.125-1.015-.365-.258-.258-.347-.561-.347-1.255V29.04c0-.694.09-.997.347-1.264.241-.231.588-.356 1.015-.356.42 0 .766.125 1.007.356.266.267.347.57.347 1.264v1.363zM51.214 31.934h.828v-5.94h-.828zM53.885 30.456c0 .56.16.81.526.81.373 0 .534-.25.534-.81v-1.47c0-.56-.161-.81-.525-.81-.374 0-.535.25-.535.81v1.47zm1.888-.053c0 .694-.08.997-.347 1.255-.241.24-.588.365-1.006.365-.428 0-.775-.125-1.015-.365-.26-.258-.348-.561-.348-1.255V29.04c0-.694.089-.997.348-1.264.24-.231.587-.356 1.015-.356.418 0 .765.125 1.006.356.267.267.347.57.347 1.264v1.363zM57.545 29.387c0 .481.168.722.498.722.347 0 .508-.232.508-.722v-.49c0-.489-.161-.72-.5-.72-.338 0-.506.24-.506.72v.49zm.07 2.69c-.106.088-.195.248-.195.373 0 .258.23.365.819.365.579 0 .846-.125.846-.383 0-.169-.107-.258-.347-.294-.125-.026-.205-.026-.66-.044a7.052 7.052 0 0 1-.435-.045c-.01.01-.01.018-.028.027zm2.298-3.732a.369.369 0 0 0-.285-.115c-.143 0-.223.044-.321.17a2.6 2.6 0 0 1 .09.738c0 1.103-.473 1.701-1.336 1.701-.098 0-.178-.01-.321-.036-.125.062-.195.151-.195.258 0 .098.062.16.177.196.09.018.178.026.686.053.56.036.8.09 1.042.241.267.17.418.481.418.855 0 .756-.552 1.103-1.762 1.103-1.024 0-1.532-.267-1.532-.8 0-.348.205-.562.694-.73-.374-.153-.516-.313-.516-.58 0-.338.187-.516.686-.685-.517-.276-.74-.748-.74-1.576 0-1.105.472-1.692 1.363-1.692.507 0 .8.16 1.077.561.115-.4.338-.56.775-.543v.881zM60.616 31.934h.829v-4.425h-.829v4.425zm0-5.075h.829v-.864h-.829v.864zM64.382 29.04v-.116c0-.508-.169-.747-.534-.747-.205 0-.374.088-.454.239-.08.152-.107.348-.107.775v1.069c0 .418.027.614.107.765.08.152.25.241.454.241.365 0 .534-.241.534-.775v-.124h.828v.169c0 .525-.089.837-.312 1.077-.24.267-.605.41-1.05.41-.499 0-.89-.161-1.113-.463-.205-.276-.276-.588-.276-1.193v-1.282c0-.606.071-.926.276-1.202.223-.303.614-.464 1.113-.464.454 0 .81.134 1.05.401.223.241.312.543.312 1.059v.161h-.828zM67.846 29.655c-.73.392-1.024.703-1.024 1.113 0 .294.178.498.42.498.23 0 .443-.142.604-.401v-1.21zm.071 2.279a1.586 1.586 0 0 1-.07-.517c-.402.437-.642.579-.998.579-.56 0-.899-.445-.899-1.175 0-.552.204-.9.721-1.22.213-.133.436-.24 1.175-.561v-.231c0-.454-.125-.632-.437-.632-.31 0-.454.186-.489.632h-.873c.072-.882.588-1.362 1.48-1.362.408 0 .702.115.907.338.187.223.24.436.24.979v1.968c0 .668.018.872.098 1.202h-.855zM69.778 31.934h.828v-5.94h-.828zM74.898 31.088c.649 0 .88-.338.88-1.264v-1.72c0-.933-.231-1.263-.88-1.263h-.454v4.247h.454zm-1.371-5.093h1.45c1.168 0 1.719.597 1.719 1.86v2.218c0 1.265-.551 1.86-1.718 1.86h-1.451v-5.938zM77.702 31.934h.828v-4.425h-.828v4.425zm0-5.075h.828v-.864h-.828v.864zM80.436 31.934l-1.086-4.425h.88l.633 2.814.561-2.814h.873l-.989 4.425zM84.914 28.889c0-.525-.161-.74-.543-.74-.383 0-.543.223-.543.74v.24h1.086v-.24zm-1.086.97v.392c0 .428.026.623.107.775.079.152.249.24.454.24.364 0 .533-.231.533-.748v-.115h.829c-.009.605-.036.8-.169 1.024-.214.382-.642.596-1.193.596-.508 0-.891-.16-1.113-.463-.196-.276-.277-.605-.277-1.202V29.04c0-.703.081-.997.357-1.255.24-.24.587-.365 1.006-.365.445 0 .81.142 1.042.409.249.286.338.606.338 1.3v.73h-1.914zM87.559 27.509v.766c.222-.588.542-.828 1.06-.828v.96a1.013 1.013 0 0 0-.401-.08c-.223 0-.401.08-.517.232-.116.152-.142.294-.142.713v2.662h-.83v-4.425h.83zM91.004 28.817c-.17-.463-.365-.64-.686-.64-.258 0-.436.16-.436.391 0 .24.125.356.748.703.499.276.722.428.899.606.196.204.312.507.312.836 0 .784-.552 1.31-1.362 1.31-.757 0-1.228-.392-1.514-1.247l.775-.267c.178.543.39.757.739.757.276 0 .472-.188.472-.446 0-.249-.143-.409-.623-.667-.623-.348-.776-.454-.971-.659a1.208 1.208 0 0 1-.32-.837c0-.713.543-1.238 1.29-1.238.704 0 1.158.348 1.434 1.068l-.757.33zM92.633 31.934h.828v-4.425h-.828v4.425zm0-5.075h.828v-.864h-.828v.864zM96.417 28.248h-.757v2.36c0 .445.152.632.516.632.098 0 .18-.018.321-.054v.748a2.733 2.733 0 0 1-.56.063c-.419 0-.722-.107-.9-.33-.16-.196-.205-.41-.205-.971v-2.448h-.64v-.74h.64v-1.21h.828v1.21h.757v.74zM99.907 27.509l-.96 4.238c-.304 1.45-.633 1.762-1.88 1.762v-.854c.054.009.116.009.133.009.464 0 .767-.294.767-.73a1.56 1.56 0 0 0-.063-.383l-.97-4.042h.872l.65 3.018.597-3.018h.854z" mask="url(#d)"/>
    </g>
</svg>
