<svg xmlns="http://www.w3.org/2000/svg" xmlns:xlink="http://www.w3.org/1999/xlink" width="153" height="58" viewBox="0 0 153 58">
    <defs>
        <path id="a" d="M0 .037h45.484V58H0z"/>
        <path id="c" d="M0 58.963h152.542V1H0z"/>
    </defs>
    <g fill="none" fill-rule="evenodd" transform="translate(0 -1)">
        <g transform="translate(0 .963)">
            <mask id="b" fill="#fff">
                <use xlink:href="#a"/>
            </mask>
            <path fill="#FFF" d="M23.635 25.756v-7.504c0-.08.075-9.23 8.29-9.625l5.277-.233c3.597-.496 5.693-1.523 6.988-4.262v10.766s-.01.316-.13.805c-.833 3.312-4.029 4.676-7.444 4.853l-4.604.234c-5.05.267-6.768 2.316-8.377 4.966zm0 18.657c0-.075.075-9.23 8.29-9.622l5.277-.235c3.597-.495 5.693-1.52 6.988-4.258v10.764s-.01.316-.13.802c-.833 3.312-4.029 4.678-7.444 4.856l-4.604.236c-5.05.266-6.768 2.314-8.377 4.964v-7.507zm-1.915-4.077c-1.606-2.653-3.326-4.7-8.376-4.966l-4.603-.235c-3.417-.179-6.613-1.54-7.443-4.855-.12-.488-.13-.804-.13-.804V18.71c1.292 2.74 3.39 3.768 6.984 4.263l5.28.232c8.212.395 8.288 9.548 8.288 9.625v7.506zm10.248-18.223l4.853-.257c8.491-.468 8.661-6.924 8.663-6.98V.105l-.71-.069c-.006.037-1.327 6.604-7.407 6.91l-5.565.262c-4.699.232-7.07 3.117-8.243 5.897-1.167 2.764-1.18 5.462-1.18 5.48V28.95a12.336 12.336 0 0 0-.456-1.29c-1.174-2.78-3.545-5.664-8.243-5.9l-5.566-.258c-3.653-.186-5.994-2.695-7.109-5.88-.213-.623-.298-1.03-.298-1.03L0 14.66v14.772s.006.42.157 1.048c.954 3.988 4.568 5.714 8.501 5.932l4.854.258c7.151.397 8.756 8.323 8.866 9.636V58h.72c0-.803 1.442-9.347 8.87-9.76l4.853-.257c8.491-.47 8.661-6.924 8.663-6.98V26.231l-.71-.068c-.006.033-1.327 6.601-7.407 6.91l-5.565.257c-4.699.238-7.07 3.122-8.243 5.902-.176.414-.326.83-.453 1.233l.007-8.639c-.1-.635 1.94-9.713 8.855-9.713z" mask="url(#b)"/>
        </g>
        <path fill="#FFF" d="M66.613 28.154v-.19c0-1.034-.367-1.577-1.074-1.577-.353 0-.666.163-.816.45-.176.297-.217.57-.217 1.303v3.018c0 .693.04 1.047.149 1.346.137.354.49.585.91.585.722 0 1.089-.585 1.089-1.768 0-.04 0-.136-.014-.23h1.414v.312c0 1.958-.856 3.004-2.488 3.004-.911 0-1.631-.353-2.025-1.005-.34-.558-.435-1.088-.435-2.434v-2.543c0-1.427.109-1.943.53-2.514.394-.544 1.087-.843 1.917-.843 1.549 0 2.46 1.033 2.46 2.814v.272h-1.4zM70.718 32.015c0 .856.245 1.237.802 1.237.571 0 .816-.38.816-1.237v-2.243c0-.856-.245-1.237-.803-1.237-.57 0-.815.381-.815 1.237v2.243zm2.882-.082c0 1.061-.123 1.522-.53 1.917-.367.367-.897.558-1.537.558-.652 0-1.182-.19-1.549-.558-.394-.395-.53-.856-.53-1.917v-2.079c0-1.06.136-1.523.53-1.93.367-.354.897-.545 1.55-.545.64 0 1.17.191 1.536.544.407.408.53.87.53 1.931v2.08zM76.496 28.385c.584-.679 1.087-.965 1.686-.965.747 0 1.101.503 1.101 1.577v5.274h-1.265v-4.948c0-.598-.122-.788-.489-.788-.34 0-.72.245-1.033.68v5.056h-1.265v-6.756h1.265v.87zM82.353 34.272l-1.658-6.756h1.346l.965 4.296.856-4.297h1.332l-1.508 6.757zM89.34 29.623c0-.802-.243-1.13-.828-1.13-.584 0-.83.34-.83 1.13v.367h1.659v-.367zm-1.658 1.482v.598c0 .652.042.95.164 1.183.122.23.38.367.694.367.557 0 .815-.354.815-1.142v-.177h1.265c-.014.924-.055 1.224-.26 1.564-.326.583-.977.91-1.82.91-.776 0-1.36-.244-1.7-.706-.3-.423-.421-.925-.421-1.836v-2.012c0-1.074.122-1.523.544-1.917.366-.367.897-.557 1.535-.557.68 0 1.238.217 1.59.625.382.435.518.925.518 1.985v1.115h-2.924zM93.392 28.385c.585-.679 1.088-.965 1.687-.965.748 0 1.1.503 1.1 1.577v5.274h-1.264v-4.948c0-.598-.123-.788-.49-.788-.34 0-.72.245-1.032.68v5.056h-1.264v-6.756h1.263v.87zM100.815 28.644H99.66v3.603c0 .68.231.964.788.964.15 0 .272-.026.49-.08v1.14a4.065 4.065 0 0 1-.857.096c-.639 0-1.1-.163-1.373-.503-.244-.299-.312-.626-.312-1.482v-3.738h-.979v-1.129h.98v-1.849h1.263v1.85h1.156v1.128z"/>
        <mask id="d" fill="#fff">
            <use xlink:href="#c"/>
        </mask>
        <path fill="#FFF" d="M102.173 34.272h1.265v-6.756h-1.265v6.756zm0-7.75h1.265v-1.317h-1.265v1.318zM106.24 32.015c0 .856.243 1.237.801 1.237.571 0 .815-.38.815-1.237v-2.243c0-.856-.244-1.237-.802-1.237-.57 0-.815.381-.815 1.237v2.243zm2.881-.082c0 1.061-.123 1.522-.53 1.917-.368.367-.897.558-1.537.558-.652 0-1.183-.19-1.55-.558-.394-.395-.53-.856-.53-1.917v-2.079c0-1.06.136-1.523.53-1.93.367-.354.898-.545 1.55-.545.64 0 1.17.191 1.537.544.407.408.53.87.53 1.931v2.08zM111.976 28.385c.584-.679 1.087-.965 1.686-.965.748 0 1.101.503 1.101 1.577v5.274h-1.265v-4.948c0-.598-.122-.788-.489-.788-.34 0-.721.245-1.033.68v5.056h-1.265v-6.756h1.265v.87zM120.608 32.015c0 .856.245 1.237.803 1.237.57 0 .815-.38.815-1.237v-2.243c0-.856-.244-1.237-.802-1.237-.571 0-.816.381-.816 1.237v2.243zm2.883-.082c0 1.061-.123 1.522-.531 1.917-.367.367-.897.558-1.536.558-.652 0-1.183-.19-1.55-.558-.394-.395-.53-.856-.53-1.917v-2.079c0-1.06.136-1.523.53-1.93.367-.354.898-.545 1.55-.545.639 0 1.169.191 1.536.544.408.408.53.87.53 1.931v2.08zM126.128 28.385c.584-.679 1.086-.965 1.685-.965.748 0 1.102.503 1.102 1.577v5.274h-1.265v-4.948c0-.598-.122-.788-.49-.788-.34 0-.72.245-1.032.68v5.056h-1.265v-6.756h1.265v.87zM65.308 46.94c.883 0 1.4-.463 1.4-1.279 0-.91-.626-1.51-1.604-1.51h-.503v2.788h.707zm-.204-4.08c.856 0 1.413-.502 1.413-1.277 0-.34-.122-.639-.339-.843-.23-.204-.517-.285-1.047-.285h-.53v2.406h.503zm-1.903-3.697h2.093c1.7 0 2.651.83 2.651 2.298 0 1.074-.476 1.712-1.495 2.025 1.223.354 1.712.979 1.712 2.175 0 1.605-1.005 2.57-2.69 2.57h-2.27v-9.069zM69.698 48.23h1.265v-6.755h-1.265v6.756zm0-7.748h1.265v-1.32h-1.265v1.32zM73.777 45.974c0 .857.245 1.237.802 1.237.57 0 .816-.38.816-1.237V43.73c0-.856-.245-1.236-.803-1.236-.57 0-.815.38-.815 1.236v2.243zm2.882-.081c0 1.06-.123 1.522-.53 1.917-.367.366-.897.557-1.537.557-.652 0-1.182-.191-1.55-.557-.393-.395-.53-.857-.53-1.917v-2.08c0-1.061.137-1.523.53-1.931.368-.353.898-.544 1.55-.544.64 0 1.17.19 1.537.544.407.408.53.87.53 1.93v2.08zM78.195 48.23h1.264v-9.067h-1.264zM82.273 45.974c0 .857.245 1.237.803 1.237.57 0 .815-.38.815-1.237V43.73c0-.856-.244-1.236-.802-1.236-.571 0-.816.38-.816 1.236v2.243zm2.883-.081c0 1.06-.123 1.522-.531 1.917-.367.366-.897.557-1.536.557-.652 0-1.183-.191-1.55-.557-.394-.395-.53-.857-.53-1.917v-2.08c0-1.061.136-1.523.53-1.931.367-.353.898-.544 1.55-.544.639 0 1.169.19 1.536.544.408.408.53.87.53 1.93v2.08zM87.86 44.343c0 .734.258 1.1.762 1.1.53 0 .775-.353.775-1.1v-.748c0-.748-.245-1.101-.761-1.101-.518 0-.775.367-.775 1.1v.749zm.109 4.105c-.163.136-.298.38-.298.572 0 .393.353.556 1.25.556.884 0 1.292-.19 1.292-.584 0-.258-.164-.394-.531-.45-.19-.04-.312-.04-1.006-.066-.176-.014-.354-.028-.666-.07-.014.015-.014.029-.041.042zm3.508-5.696c-.15-.136-.26-.177-.435-.177-.218 0-.34.069-.49.259.096.354.136.666.136 1.128 0 1.686-.72 2.597-2.04 2.597-.148 0-.271-.014-.488-.055-.191.096-.3.232-.3.395 0 .149.096.245.272.298.136.028.272.042 1.048.083.856.053 1.223.135 1.59.366.408.259.639.734.639 1.305 0 1.156-.842 1.686-2.692 1.686-1.563 0-2.338-.407-2.338-1.224 0-.53.313-.856 1.06-1.114-.571-.231-.788-.477-.788-.884 0-.516.285-.788 1.046-1.047-.788-.421-1.128-1.142-1.128-2.406 0-1.686.72-2.583 2.08-2.583.775 0 1.224.245 1.646.857.175-.612.515-.857 1.182-.83v1.346zM92.55 48.23h1.265v-6.755H92.55v6.756zm0-7.748h1.265v-1.32H92.55v1.32zM98.3 43.813v-.178c0-.774-.257-1.14-.814-1.14-.313 0-.572.135-.694.366-.122.232-.163.53-.163 1.183v1.63c0 .64.04.938.163 1.17.122.231.38.367.694.367.557 0 .815-.367.815-1.182v-.192h1.265v.258c0 .803-.137 1.28-.476 1.647-.368.408-.925.625-1.604.625-.762 0-1.36-.244-1.7-.706-.312-.422-.421-.898-.421-1.824V43.88c0-.924.109-1.413.42-1.835.34-.462.939-.708 1.7-.708.694 0 1.237.204 1.605.613.339.366.476.83.476 1.617v.245H98.3zM103.59 44.75c-1.115.599-1.564 1.075-1.564 1.7 0 .448.272.76.639.76.354 0 .679-.217.925-.61v-1.85zm.108 3.48c-.068-.188-.108-.461-.108-.788-.612.666-.98.885-1.522.885-.857 0-1.374-.681-1.374-1.795 0-.843.313-1.374 1.102-1.863.325-.204.665-.367 1.794-.856v-.355c0-.692-.191-.963-.667-.963-.476 0-.693.285-.748.964h-1.332c.11-1.346.898-2.08 2.258-2.08.625 0 1.073.177 1.386.517.286.34.367.666.367 1.495v3.005c0 1.02.027 1.331.149 1.834h-1.305zM106.539 48.23h1.265v-9.067h-1.265zM114.356 46.94c.992 0 1.346-.517 1.346-1.931v-2.624c0-1.427-.354-1.93-1.346-1.93h-.693v6.485h.693zm-2.093-7.777h2.216c1.78 0 2.623.912 2.623 2.84v3.386c0 1.931-.843 2.841-2.623 2.841h-2.216v-9.067zM118.639 48.23h1.264v-6.755h-1.264v6.756zm0-7.748h1.264v-1.32h-1.264v1.32zM122.812 48.23l-1.659-6.755h1.346l.965 4.295.857-4.296h1.332l-1.509 6.757zM129.649 43.582c0-.802-.245-1.13-.83-1.13-.584 0-.83.34-.83 1.13v.367h1.66v-.367zm-1.66 1.482v.598c0 .652.043.95.165 1.182.122.232.38.367.693.367.557 0 .815-.353.815-1.141v-.177h1.265c-.014.924-.054 1.224-.258 1.564-.327.584-.98.91-1.822.91-.775 0-1.36-.244-1.7-.706-.298-.422-.42-.925-.42-1.836v-2.012c0-1.074.122-1.523.544-1.917.366-.367.896-.558 1.535-.558.68 0 1.238.218 1.59.626.38.435.517.925.517 1.985v1.115h-2.923zM133.687 41.474v1.17c.339-.898.829-1.265 1.618-1.265v1.468a1.536 1.536 0 0 0-.612-.123c-.34 0-.612.123-.789.354-.176.231-.217.45-.217 1.088v4.064h-1.265v-6.756h1.265zM138.948 43.473c-.26-.708-.558-.98-1.047-.98-.394 0-.666.246-.666.6 0 .366.19.543 1.142 1.073.76.422 1.1.653 1.374.924.298.313.475.776.475 1.279 0 1.196-.843 1.998-2.08 1.998-1.156 0-1.876-.598-2.311-1.904l1.183-.407c.272.829.597 1.155 1.128 1.155.422 0 .72-.286.72-.68 0-.38-.217-.625-.951-1.018-.951-.531-1.183-.694-1.482-1.007a1.843 1.843 0 0 1-.49-1.278c0-1.088.83-1.89 1.972-1.89 1.074 0 1.767.53 2.188 1.632l-1.155.503zM141.435 48.23h1.265v-6.755h-1.265v6.756zm0-7.748h1.265v-1.32h-1.265v1.32zM147.213 42.602h-1.155v3.604c0 .678.23.963.788.963.15 0 .271-.025.49-.08v1.142a4.116 4.116 0 0 1-.857.096c-.64 0-1.102-.164-1.373-.505-.246-.297-.313-.625-.313-1.482v-3.738h-.978v-1.127h.978v-1.85h1.265v1.85h1.155v1.127zM152.542 41.474l-1.469 6.471c-.463 2.216-.965 2.692-2.868 2.692v-1.305c.081.013.176.013.203.013.709 0 1.17-.449 1.17-1.115 0-.149-.026-.312-.096-.585l-1.48-6.17h1.331l.993 4.608.91-4.609h1.306z" mask="url(#d)"/>
    </g>
</svg>
