<?xml version="1.0" encoding="utf-8"?>
<!-- Generator: Adobe Illustrator 22.1.0, SVG Export Plug-In . SVG Version: 6.00 Build 0)  -->
<svg version="1.1" id="Layer_1" xmlns="http://www.w3.org/2000/svg" xmlns:xlink="http://www.w3.org/1999/xlink" x="0px" y="0px"
	 viewBox="0 0 340.2 113.4" style="enable-background:new 0 0 340.2 113.4;" xml:space="preserve">
<style type="text/css">
	.Arched_x0020_Green{fill:url(#SVGID_1_);stroke:#FFFFFF;stroke-width:0.25;stroke-miterlimit:1;}
	.st0{fill:#FFFFFF;}
</style>
<linearGradient id="SVGID_1_" gradientUnits="userSpaceOnUse" x1="-39.6864" y1="205.5127" x2="-38.9793" y2="204.8056">
	<stop  offset="0" style="stop-color:#1DA238"/>
	<stop  offset="0.9831" style="stop-color:#24391D"/>
</linearGradient>
<path class="st0" d="M23.8,28.7h7.7v6.7h0.2c4.2-4.9,9.8-7.9,16.5-7.9c14.5,0,24.2,10.2,24.2,24.2c0,13.8-10.1,24.2-23,24.2
	c-8.3,0-14.8-4.1-17.7-9.3h-0.2v36.3h-7.7V28.7z M47.8,68.8c9.9,0,16.3-7.5,16.3-17.1c0-9.6-6.4-17.1-16.3-17.1
	c-9.9,0-16.3,7.5-16.3,17.1C31.5,61.3,37.9,68.8,47.8,68.8z"/>
<path class="st0" d="M77.6,39.6c0-4.2-0.4-7.9-0.4-10.9h7.3c0,2.5,0.2,5,0.2,7.6h0.2c2.1-4.5,7.8-8.7,15.3-8.7c1,0,2.1,0.1,3.1,0.5
	l-0.5,7.8c-1.3-0.4-2.8-0.6-4.1-0.6c-9.3,0-13.5,6.6-13.5,17.1v22.4h-7.7V39.6z"/>
<path class="st0" d="M186.2,35.2h-13.6v23c0,5.9,0.1,10.6,6.9,10.6c2.3,0,4.7-0.5,6.8-1.6l0.3,7c-2.6,1.2-6.1,1.7-8.9,1.7
	c-10.9,0-12.7-5.9-12.7-15.4V35.2h-10v-6.5h10V15.6h7.7v13.1h13.6V35.2z"/>
<path class="st0" d="M231.6,66.3c-5.4,7-11.9,9.5-20.4,9.5c-14.4,0-23.3-10.8-23.3-24.2c0-14.2,10-24.2,23.6-24.2
	c13,0,21.8,8.9,21.8,24.1v2.5h-37.1c0.6,8,6.7,14.7,15,14.7c6.6,0,11-2.4,14.6-7L231.6,66.3z M225,47.6c-0.3-7.8-5.4-13-13.9-13
	c-8.5,0-14.1,5.2-15,13H225z"/>
<path class="st0" d="M279.8,63.8c0,4.2,0.4,7.9,0.4,10.9h-7.3c0-2.5-0.2-5-0.2-7.6h-0.2c-2.1,4.5-7.8,8.8-15.3,8.8
	c-12.1,0-17.5-7.7-17.5-18.8V28.7h7.7v27.6c0,7.7,3.3,12.5,10.5,12.5c9.9,0,14.2-7.2,14.2-17.7V28.7h7.7V63.8z"/>
<path class="st0" d="M292.1,62.6c3,3.7,6.4,6.2,11.8,6.2c4.8,0,10.1-2.1,10.1-7.1c0-4.9-4.9-6.2-9.8-7.3c-8.8-2-16.2-3.8-16.2-13.4
	c0-8.9,8.6-13.6,17.2-13.6c6.5,0,12.5,2.5,15.6,8.4l-6.4,4.2c-2-3.2-5.2-5.5-9.7-5.5c-4.2,0-9,2.1-9,6.4c0,3.8,5.5,5.5,11.6,6.7
	c8.2,1.6,15,4.5,15,13.8c0,10.4-9.2,14.5-18.4,14.5c-7.8,0-13.4-2.1-17.9-8.6L292.1,62.6z"/>
<path class="st0" d="M147,58.6c1.7-4.2,1.8-8.8,0.3-13.1c-1.3-3.7-3.7-6.7-6.8-8.9l1.1-9.7l-6.8,7c-1.6-0.5-3.3-0.7-5-0.7
	c-6.7,0-13,3.7-16.2,9.5l-3.7-0.4l2.6,2.6c-3.4,8.6,0.1,18.5,8.2,23l-0.4,3.7l2.6-2.6c2.2,0.9,4.5,1.3,6.9,1.3
	c6.7,0,13-3.7,16.2-9.5l3.7,0.4L147,58.6z M144.6,58.8c-3.9,8.2-13.7,11.7-21.9,7.8c-8.2-3.9-11.7-13.7-7.8-21.9
	c3.9-8.2,13.7-11.7,21.9-7.8C145,40.8,148.5,50.6,144.6,58.8z"/>
<path class="st0" d="M152.5,60.1c3.5-9.5,0.7-20-6.6-26.5l2.4-20.8l-14.6,15c-9.7-1.6-19.6,2.9-24.7,11.6l-6.6-0.8l4.7,4.6
	c-4.1,11,0.3,23.3,10.4,29.2l-0.8,6.6l4.6-4.7c11,4.1,23.3-0.3,29.2-10.4l6.6,0.8L152.5,60.1z M146,60.7c-3.2,5.8-9.5,9.5-16.2,9.5
	c-2.4,0-4.7-0.4-6.9-1.3l-2.6,2.6l0.4-3.7c-8.1-4.5-11.6-14.4-8.2-23l-2.6-2.6l3.7,0.4c3.3-5.8,9.5-9.5,16.2-9.5
	c1.7,0,3.4,0.2,5,0.7l6.8-7l-1.1,9.7c3.1,2.2,5.5,5.3,6.8,8.9c1.5,4.3,1.4,8.9-0.3,13.1l2.6,2.6L146,60.7z"/>
</svg>
