<svg xmlns="http://www.w3.org/2000/svg" width="29" height="31" viewBox="0 0 29 31">
    <g fill="#00A0D1" fill-rule="nonzero">
        <path d="M28.482 2.067h-3.625V.517A.517.517 0 0 0 24.34 0h-3.625a.517.517 0 0 0-.518.517v1.55H8.804V.517A.517.517 0 0 0 8.286 0H4.66a.517.517 0 0 0-.518.517v1.55H.518A.517.517 0 0 0 0 2.583V30.483c0 .286.231.517.518.517h27.964c.287 0 .518-.23.518-.517V2.583a.517.517 0 0 0-.518-.516zm-7.25-1.034h2.59v3.1h-2.59v-3.1zm-16.053 0h2.589v3.1h-2.59v-3.1zM1.036 3.1h3.107v1.55c0 .286.231.517.518.517h3.625c.286 0 .518-.231.518-.517V3.1h11.392v1.55c0 .286.232.517.518.517h3.625c.287 0 .518-.231.518-.517V3.1h3.107v4.65H1.036V3.1zm0 26.867V8.783h26.928v21.184H1.036z"/>
        <path d="M19.21 12H5v15h20V12h-5.789zm-3.684 1.034h3.685v3.621h-3.685v-3.62zm3.685 8.276h-3.685v-3.62h3.685v3.62zm-8.422-3.62h3.685v3.62h-3.685v-3.62zm0-4.656h3.685v3.621h-3.685v-3.62zm-4.736 0h3.684v3.621H6.053v-3.62zm0 4.656h3.684v3.62H6.053v-3.62zm3.684 8.276H6.053v-3.621h3.684v3.62zm4.737 0h-3.685v-3.621h3.685v3.62zm4.737 0h-3.685v-3.621h3.685v3.62zm4.736 0h-3.684v-3.621h3.684v3.62zm0-4.656h-3.684v-3.62h3.684v3.62zm0-8.276v3.621h-3.684v-3.62h3.684z"/>
    </g>
</svg>
