<?xml version="1.0" encoding="UTF-8"?>
<svg width="13px" height="11px" viewBox="0 0 13 11" version="1.1" xmlns="http://www.w3.org/2000/svg" xmlns:xlink="http://www.w3.org/1999/xlink">
    <!-- Generator: Sketch 48.1 (47250) - http://www.bohemiancoding.com/sketch -->
    <title>Group</title>
    <desc>Created with Sketch.</desc>
    <defs></defs>
    <g id="Timeline-M" stroke="none" stroke-width="1" fill="none" fill-rule="evenodd" transform="translate(-183.000000, -93.000000)">
        <g id="Group" transform="translate(183.000000, 93.000000)" fill-rule="nonzero">
            <path d="M5.05930821,3.50061679 L9.73595082,-1.55149667 C10.0874214,-1.88368826 10.0874214,-2.42163594 9.7395072,-2.75212969 C9.39509381,-3.08262344 8.82818426,-3.08262344 8.48382644,-2.75212969 L3.25794504,2.88849504 C3.08134844,3.05711105 2.99655095,3.27804153 3.00010733,3.49891896 C2.99832914,3.71979638 3.08134844,3.9424247 3.25794504,4.11104071 L8.48210381,9.75336327 C8.83001802,10.0822122 9.39520495,10.0822122 9.73778458,9.75336327 C10.0856988,9.4245143 10.0856988,8.883224 9.73778458,8.55442809 L5.05930821,3.50061679 Z" id="Shape" fill="#7f7f7f" transform="translate(6.500000, 3.500000) scale(-1, -1) rotate(90.000000) translate(-6.500000, -3.500000) "></path>
            <path d="M5.05930821,7.50061679 L9.73595082,2.44850333 C10.0874214,2.11631174 10.0874214,1.57836406 9.7395072,1.24787031 C9.39509381,0.917376563 8.82818426,0.917376563 8.48382644,1.24787031 L3.25794504,6.88849504 C3.08134844,7.05711105 2.99655095,7.27804153 3.00010733,7.49891896 C2.99832914,7.71979638 3.08134844,7.9424247 3.25794504,8.11104071 L8.48210381,13.7533633 C8.83001802,14.0822122 9.39520495,14.0822122 9.73778458,13.7533633 C10.0856988,13.4245143 10.0856988,12.883224 9.73778458,12.5544281 L5.05930821,7.50061679 Z" id="Shape" fill="#7f7f7f" transform="translate(6.500000, 7.500000) scale(-1, -1) rotate(90.000000) translate(-6.500000, -7.500000) "></path>
        </g>
    </g>
</svg>