<svg xmlns="http://www.w3.org/2000/svg" width="24" height="25" viewBox="0 0 24 25">
    <path fill="#000" fill-rule="nonzero" stroke="#000" stroke-width="2" d="M12.171 14.733l8.346 8.614a1.297 1.297 0 0 0 1.877 0 1.4 1.4 0 0 0 0-1.937l-8.346-8.614 8.346-8.615a1.4 1.4 0 0 0 0-1.938 1.297 1.297 0 0 0-1.877 0l-8.346 8.615-8.345-8.615a1.297 1.297 0 0 0-1.877 0 1.39 1.39 0 0 0-.388.969c0 .35.13.701.388.969l8.346 8.615L1.95 21.41c-.259.268-.388.618-.388.969 0 .35.13.7.388.968a1.297 1.297 0 0 0 1.877 0l8.345-8.614z"/>
</svg>
