<svg xmlns="http://www.w3.org/2000/svg" width="18" height="33" viewBox="0 0 18 33">
    <path fill="#343434" fill-rule="nonzero" d="M17.322.007L13.005 0C8.155 0 5.02 3.188 5.02 8.121v3.745H.679a.676.676 0 0 0-.679.673v5.425c0 .372.304.673.679.673h4.34v13.69c0 .372.305.673.68.673h5.663a.676.676 0 0 0 .68-.673v-13.69h5.075a.676.676 0 0 0 .679-.673l.002-5.425a.67.67 0 0 0-.2-.476.682.682 0 0 0-.48-.197h-5.077V8.692c0-1.526.367-2.3 2.372-2.3l2.908-.002A.676.676 0 0 0 18 5.717V.68a.676.676 0 0 0-.678-.673z"/>
</svg>
