<svg xmlns="http://www.w3.org/2000/svg" width="38" height="36" viewBox="0 0 38 36">
    <path fill="#ffffff" fill-rule="nonzero" d="M38 22.074V36h-8.148V23c0-3.268-1.175-5.489-4.123-5.489-2.255 0-3.585 1.504-4.178 2.951-.214.521-.279 1.251-.279 1.972v13.564h-8.14s.11-22.008 0-24.287h8.142v3.442c-.011.028-.035.052-.046.083h.046v-.083c1.087-1.654 3.014-4.012 7.342-4.012 5.37 0 9.384 3.47 9.384 10.933zM4.609 0C1.824 0 0 1.812 0 4.2c0 2.326 1.77 4.198 4.505 4.198h.049c2.846 0 4.61-1.872 4.61-4.197C9.11 1.81 7.401 0 4.61 0zM.486 36H8.63V11.71H.486V36z"/>
</svg>
