<svg xmlns="http://www.w3.org/2000/svg" width="27" height="38" viewBox="0 0 27 38">
    <g fill="#00A0D1" fill-rule="nonzero">
        <path d="M14 8c-2.756 0-5 2.244-5 5s2.244 5 5 5 5-2.244 5-5-2.244-5-5-5zm0 8.571A3.575 3.575 0 0 1 10.429 13 3.575 3.575 0 0 1 14 9.429 3.575 3.575 0 0 1 17.571 13 3.575 3.575 0 0 1 14 16.571z"/>
        <path d="M23.048 3.898C20.498 1.384 17.108 0 13.5 0 9.895 0 6.505 1.384 3.955 3.898-.765 8.55-1.351 17.3 2.685 22.602L13.5 38l10.8-15.376c4.052-5.324 3.466-14.075-1.253-18.726zm.112 17.914L13.5 35.562 3.827 21.79C.167 16.98.692 9.077 4.951 4.879a12.102 12.102 0 0 1 8.55-3.491c3.23 0 6.267 1.24 8.551 3.491 4.26 4.198 4.784 12.101 1.108 16.933z"/>
    </g>
</svg>
