<svg xmlns="http://www.w3.org/2000/svg" width="36" height="36" viewBox="0 0 36 36">
    <g fill="none" fill-rule="evenodd">
        <circle cx="18" cy="18" r="18" fill="#4D6B89" opacity=".778"/>
        <path fill="#FFF" fill-rule="nonzero" d="M22.332 21.724c-.675 0-1.28.269-1.74.693l-6.338-3.748c.045-.208.08-.417.08-.633 0-.216-.035-.425-.08-.633l6.267-3.713c.478.45 1.11.73 1.81.73 1.478 0 2.669-1.207 2.669-2.71C25 10.211 23.809 9 22.332 9c-1.475 0-2.666 1.211-2.666 2.71 0 .219.036.424.081.633l-6.267 3.716a2.626 2.626 0 0 0-1.812-.733c-1.477 0-2.668 1.21-2.668 2.71s1.19 2.71 2.668 2.71c.7 0 1.333-.28 1.811-.73l6.328 3.756c-.044.191-.071.39-.071.59 0 1.454 1.166 2.638 2.595 2.638 1.43 0 2.597-1.183 2.597-2.639 0-1.455-1.166-2.637-2.596-2.637z"/>
    </g>
</svg>
