<svg xmlns="http://www.w3.org/2000/svg" width="36" height="30" viewBox="0 0 36 30">
    <path fill="#ffffff" fill-rule="nonzero" d="M36 3.55a14.459 14.459 0 0 1-4.24 1.193 7.577 7.577 0 0 0 3.246-4.19 14.662 14.662 0 0 1-4.693 1.84A7.279 7.279 0 0 0 24.923 0c-4.078 0-7.385 3.393-7.385 7.574 0 .594.065 1.173.19 1.727-6.136-.316-11.578-3.333-15.22-7.916a7.668 7.668 0 0 0-.999 3.808c0 2.628 1.305 4.948 3.285 6.305a7.244 7.244 0 0 1-3.345-.951v.095c0 3.669 2.546 6.732 5.923 7.429a7.303 7.303 0 0 1-1.946.265c-.477 0-.938-.048-1.39-.14.94 3.011 3.667 5.201 6.897 5.261a14.581 14.581 0 0 1-9.172 3.238c-.596 0-1.183-.037-1.761-.104A20.495 20.495 0 0 0 11.32 30C24.905 30 32.33 18.456 32.33 8.445l-.025-.981A14.963 14.963 0 0 0 36 3.549z"/>
</svg>
